#define clock_width 14
#define clock_height 14
static char clock_bits[] = {
  0xE0, 0x01, 0xF8, 0x07, 0x1C, 0x0E, 0x06, 0x18, 0x06, 0x18, 0x03, 0x30, 
  0x03, 0x30, 0x03, 0x30, 0x03, 0x30, 0x06, 0x18, 0x06, 0x18, 0x1C, 0x0E, 
  0xF8, 0x07, 0xE0, 0x01, };
