/* XPM */
static char * XFACE[] = {
/* <Values> */
/* <width/cols> <height/rows> <colors> <char on pixel>*/
"14 14 2 2",
/* <Colors> */
"## c #000000",
"`` c #ffffff",
/* <Pixels>   \/             */
"``````````########``````````",
"``````################``````",
"````######````````######````",
"``####````````````````####``",
"``####````````````````####``",
"####````````````````````####",
"####````````````````````####",
"####````````````````````####",
"####````````````````````####",
"``####````````````````####``",
"``####````````````````####``",
"````######````````######````",
"``````################``````",
"``````````########``````````"
};
