#define clock_width 16
#define clock_height 16
static char clock_bits[] = {
  0xC0, 0x03, 0x70, 0x0E, 0x78, 0x1E, 0x7C, 0x3E, 0x7E, 0x7E, 0x7E, 0x7E, 
  0x7F, 0xFE, 0x7F, 0xF0, 0x7F, 0xF0, 0xFF, 0xFF, 0xFE, 0x7F, 0xFE, 0x7F, 
  0xFC, 0x3F, 0xF8, 0x1F, 0xF0, 0x0F, 0xC0, 0x03, };
