#define down_width 14
#define down_height 14
static char down_bits[] = {
  0x00, 0x00, 0xE0, 0x01, 0xE0, 0x01, 0xE0, 0x01, 0xE0, 0x01, 0xE0, 0x01, 
  0xE0, 0x01, 0xFE, 0x1F, 0xFC, 0x0F, 0xF8, 0x07, 0xF0, 0x03, 0xE0, 0x01, 
  0xC0, 0x00, 0x00, 0x00, };
